<svg xmlns="http://www.w3.org/2000/svg" width="100" height="100" viewBox="0 0 120 120">
  <g id="Group_1411" data-name="Group 1411" transform="translate(-358 -3201)">
    <g id="Artificial_Intelligence" data-name="Artificial Intelligence" transform="translate(-537 -1138.396)">
      <g id="Group_1021" data-name="Group 1021" transform="translate(895 4339.396)">
        <rect id="Rectangle_981" data-name="Rectangle 981" width="120" height="120" fill="none"/>
        <g id="ai" transform="translate(17.11 14.75)">
          <path id="Path_1046" data-name="Path 1046" d="M369.6,167.53h4.534a1.512,1.512,0,0,0,1.512-1.512v-4.534a1.512,1.512,0,0,0-3.022,0v3.022H369.6a1.512,1.512,0,1,0,0,3.022Zm0,0" transform="translate(-299.568 -130.12)" fill="#2c3c98"/>
          <path id="Path_1047" data-name="Path 1047" d="M161.9,116.087a6.043,6.043,0,1,0-6.043-6.043A6.043,6.043,0,0,0,161.9,116.087Zm0-9.065a3.022,3.022,0,1,1-3.022,3.022,3.022,3.022,0,0,1,3.022-3.022Zm0,0" transform="translate(-126.807 -84.608)" fill="#2c3c98"/>
          <path id="Path_1048" data-name="Path 1048" d="M2.45,30.884a4.457,4.457,0,0,0,6.258-2.511l11.745-.182L18.4,29.885a1.494,1.494,0,0,0-.346,1.9l2.792,4.829.062,6.724H13.457a1.314,1.314,0,0,0-.259.052,4.483,4.483,0,1,0,0,2.884,1.314,1.314,0,0,0,.259.052h8.961a1.495,1.495,0,0,0,1.494-1.507l-.07-7.574,4.779-1.793q.487.315.987.58l1.008,6.058a1.5,1.5,0,0,0,1.475,1.248h.772V50.8H28.388a1.5,1.5,0,0,0-1.494,1.5V74.1l-13,13.01a1.493,1.493,0,0,0,1.056,2.55H62.744a1.5,1.5,0,0,0,1.056-2.55L53.783,77.075v-7.92l3.344-5.573c5.642,3.406,9.053,5.158,10.1,5.158h8.961a1.5,1.5,0,0,0,1.494-1.5V58.9l2.549-2.55a1.509,1.509,0,0,0,.438-1.059V50.8h2.182a2.988,2.988,0,0,0,2.73-4.2l-4.643-10.46a11.617,11.617,0,0,0,2.719-7.5A25.944,25.944,0,0,0,69.241,5.316L64.908,3.147a1.492,1.492,0,0,0-1.881.469l-.626.867H52.289V1.5A1.5,1.5,0,0,0,50.8,0H35.86a1.5,1.5,0,0,0-1.487,1.5V7.472H32.095a1.5,1.5,0,0,0-1.475,1.25L29.6,14.778a10.692,10.692,0,0,0-.987.58L22.866,13.2a1.492,1.492,0,0,0-1.817.651l-1.506,2.61c-.039,0-.07-.023-.108-.023H10.471V11.679a4.482,4.482,0,1,0-2.987,0v6.253a1.5,1.5,0,0,0,1.494,1.5h8.939a1.478,1.478,0,0,0,.488,1.5l4.738,3.9v.332l-14.45.222a4.482,4.482,0,1,0-6.252,5.507ZM8.978,46.322a1.491,1.491,0,1,1,1.057-.436,1.495,1.495,0,0,1-1.057.436Zm0-40.346a1.5,1.5,0,1,1-1.494,1.5,1.495,1.495,0,0,1,1.494-1.5ZM35.86,43.334h2.2a1.493,1.493,0,0,0,1.473-1.248l1.018-6.058a11.226,11.226,0,0,0,.987-.58L47.294,37.6a1.492,1.492,0,0,0,1.817-.651l.631-1.093H56.77a1.364,1.364,0,0,0,.324-.066l2.663,3.552v2.492H53.783v2.988H57.23l-4,1.6a1.493,1.493,0,0,0-.938,1.389V50.8H35.86ZM52.088,19.025l-.629-1.093h3.817v5.977H48.132L51.75,20.92a1.494,1.494,0,0,0,.344-1.895ZM55.276,26.9v5.977H51.459l.629-1.093a1.494,1.494,0,0,0-.344-1.895L48.122,26.9ZM45.259,63.818l5.537,5.53v.875H41.834V53.794h2.987v8.967A1.5,1.5,0,0,0,45.259,63.818ZM35.8,83.681h.069V83.6l5.6-6.409a1.5,1.5,0,0,0,.369-.985v-3h2.987V86.66H33.17ZM18.557,86.668l10.893-10.9a1.5,1.5,0,0,0,.438-1.057V53.794h8.961V75.647L35.86,79.063v-7.34H32.873V82.484L29.2,86.668Zm40.583,0H47.807V73.211h2.987v4.483a1.5,1.5,0,0,0,.438,1.057ZM52,66.327l-4.182-4.184V53.794h4.481v5.977a1.5,1.5,0,0,0,.7,1.267c.558.35,1.06.657,1.587.981ZM64.711,6.39,67.9,7.99A22.973,22.973,0,0,1,80.667,28.647a8.656,8.656,0,0,1-2.549,6.16,1.494,1.494,0,0,0-.309,1.663l5.041,11.349H79.167a1.5,1.5,0,0,0-1.494,1.5V53.8h-.243a8.642,8.642,0,0,1-6.155-2.55,1.495,1.495,0,0,0-2.112,2.113,11.583,11.583,0,0,0,6.551,3.284l-.579.58a1.5,1.5,0,0,0-.438,1.057v7.472H67.37A79.388,79.388,0,0,1,57.4,60.24h0c-.7-.427-1.408-.862-2.1-1.292V48.83l6.528-2.612a1.5,1.5,0,0,0,.938-1.389V38.852a1.5,1.5,0,0,0-.3-.9l-4.182-5.579V15.421Zm-27.357-3.4H49.3v2.99a1.5,1.5,0,0,0,1.494,1.5h9.472l-4.713,6.6a1.48,1.48,0,0,0-.28.867H49.734L49.1,13.848a1.492,1.492,0,0,0-1.817-.651l-5.752,2.158c-.324-.211-.655-.4-.987-.58L39.532,8.718A1.493,1.493,0,0,0,38.059,7.47H37.35ZM21.279,19.425,23,16.437l5.3,1.99a1.494,1.494,0,0,0,1.417-.193,8.96,8.96,0,0,1,1.819-1.061,1.493,1.493,0,0,0,.882-1.14l.929-5.575H36.8l.929,5.575a1.493,1.493,0,0,0,.884,1.128,9.049,9.049,0,0,1,1.819,1.061,1.49,1.49,0,0,0,1.415.193l5.306-1.99,1.72,2.988L44.5,23.01a1.5,1.5,0,0,0-.533,1.331,8.044,8.044,0,0,1,0,2.1,1.5,1.5,0,0,0,.533,1.331l4.369,3.593-1.72,2.988-5.306-1.99a1.49,1.49,0,0,0-1.415.193,9.048,9.048,0,0,1-1.819,1.061,1.493,1.493,0,0,0-.884,1.128L36.8,40.322H33.35l-.925-5.552a1.493,1.493,0,0,0-.884-1.128,8.934,8.934,0,0,1-1.817-1.061,1.492,1.492,0,0,0-1.417-.193L23,34.378,21.279,31.39l4.369-3.6a.986.986,0,0,0,.075-.081,1.159,1.159,0,0,0,.083-.087,1.455,1.455,0,0,0,.268-.411V27.2a1.478,1.478,0,0,0,.095-.516.5.5,0,0,0,.012-.064.094.094,0,0,0-.01-.05.359.359,0,0,1,0-.1,8.044,8.044,0,0,1,0-2.1,1.5,1.5,0,0,0-.535-1.331ZM3.168,26.213a1.477,1.477,0,0,1,.873-.748,1.5,1.5,0,0,1,.915,2.84A1.489,1.489,0,0,1,3.17,26.213Zm0,0" transform="translate(0.006)" fill="#2c3c98"/>
          <path id="Path_1049" data-name="Path 1049" d="M176.066,320h3.022v3.022h-3.022Zm0,0" transform="translate(-143.201 -260.252)" fill="#2c3c98"/>
          <path id="Path_1050" data-name="Path 1050" d="M176.066,352h3.022v3.022h-3.022Zm0,0" transform="translate(-143.201 -286.278)" fill="#2c3c98"/>
          <path id="Path_1051" data-name="Path 1051" d="M224.066,224h3.022v3.022h-3.022Zm0,0" transform="translate(-182.244 -182.175)" fill="#2c3c98"/>
          <path id="Path_1052" data-name="Path 1052" d="M256.066,224h3.022v3.022h-3.022Zm0,0" transform="translate(-208.272 -182.175)" fill="#2c3c98"/>
          <path id="Path_1053" data-name="Path 1053" d="M328.066,80h3.022v6.043h-3.022Zm0,0" transform="translate(-266.836 -65.068)" fill="#2c3c98"/>
          <path id="Path_1054" data-name="Path 1054" d="M328.066,128h3.022v3.022h-3.022Zm0,0" transform="translate(-266.836 -104.101)" fill="#2c3c98"/>
          <path id="Path_1055" data-name="Path 1055" d="M328.066,160h3.022v3.022h-3.022Zm0,0" transform="translate(-266.836 -130.126)" fill="#2c3c98"/>
        </g>
      </g>
    </g>
    <circle id="Ellipse_16" data-name="Ellipse 16" cx="34" cy="34" r="34" transform="translate(393 3239)" fill="#fdb913" opacity="0.66" style="mix-blend-mode: multiply;isolation: isolate"/>
  </g>
</svg>
