<svg xmlns="http://www.w3.org/2000/svg" width="100" height="100" viewBox="0 0 120 120">
  <g id="Group_3658" data-name="Group 3658" transform="translate(-613 -420)">
    <g id="Group_3657" data-name="Group 3657" transform="translate(-6071 6194)">
      <rect id="Rectangle_119" data-name="Rectangle 119" width="120" height="120" transform="translate(6684 -5774)" fill="none"/>
      <g id="Group_3656" data-name="Group 3656" transform="translate(280.859 -29.946)">
        <circle id="Ellipse_21" data-name="Ellipse 21" cx="25.23" cy="25.23" r="25.23" transform="translate(6455.895 -5690.514)" fill="#fdb913" opacity="0.66"/>
        <g id="artificial-intelligence_1_" data-name="artificial-intelligence (1)" transform="translate(6419.141 -5728.055)">
          <g id="Group_1594" data-name="Group 1594" transform="translate(9.252 40.769)">
            <g id="Group_1593" data-name="Group 1593" transform="translate(0 0)">
              <path id="Path_2485" data-name="Path 2485" d="M68.792,240.559H65.06a4.31,4.31,0,0,1-4.319-4.294,1.3,1.3,0,0,0-2.6,0,6.915,6.915,0,0,0,6.921,6.894h3.733a1.3,1.3,0,1,0,0-2.6Z" transform="translate(-58.138 -234.964)" fill="#393185"/>
            </g>
          </g>
          <g id="Group_1596" data-name="Group 1596" transform="translate(14.355 55.995)">
            <g id="Group_1595" data-name="Group 1595" transform="translate(0 0)">
              <path id="Path_2486" data-name="Path 2486" d="M105.34,322.708H94.224a6.653,6.653,0,0,0-6.663,6.632,1.3,1.3,0,1,0,2.6,0,4.048,4.048,0,0,1,4.056-4.03h11.117a1.3,1.3,0,1,0,0-2.6Z" transform="translate(-87.561 -322.707)" fill="#393185"/>
            </g>
          </g>
          <g id="Group_1598" data-name="Group 1598" transform="translate(36.038 55.996)">
            <g id="Group_1597" data-name="Group 1597">
              <path id="Path_2487" data-name="Path 2487" d="M219.217,322.708h-5.4a1.3,1.3,0,0,0,0,2.6h5.4a1.3,1.3,0,1,0,0-2.6Z" transform="translate(-212.518 -322.708)" fill="#393185"/>
            </g>
          </g>
          <g id="Group_1600" data-name="Group 1600" transform="translate(24.197 30.71)">
            <g id="Group_1599" data-name="Group 1599">
              <path id="Path_2488" data-name="Path 2488" d="M153.66,176.977a1.3,1.3,0,0,0-1.3,1.3,6.776,6.776,0,0,1-6.788,6.748,1.3,1.3,0,1,0,0,2.6,9.381,9.381,0,0,0,9.39-9.351A1.3,1.3,0,0,0,153.66,176.977Z" transform="translate(-144.27 -176.977)" fill="#393185"/>
            </g>
          </g>
          <g id="Group_1602" data-name="Group 1602" transform="translate(25.181 11.026)">
            <g id="Group_1601" data-name="Group 1601" transform="translate(0 0)">
              <path id="Path_2489" data-name="Path 2489" d="M155.947,63.54a5.653,5.653,0,0,0-6.005,5.256,1.3,1.3,0,0,0,1.214,1.383h.086a1.3,1.3,0,0,0,1.3-1.217,3.048,3.048,0,0,1,3.241-2.827,1.3,1.3,0,1,0,.167-2.6Z" transform="translate(-149.939 -63.528)" fill="#393185"/>
            </g>
          </g>
          <g id="Group_1604" data-name="Group 1604" transform="translate(25.509 61.787)">
            <g id="Group_1603" data-name="Group 1603" transform="translate(0 0)">
              <path id="Path_2490" data-name="Path 2490" d="M153.143,356.1a1.3,1.3,0,1,0,0,2.6,3.872,3.872,0,1,1,0,7.743,1.3,1.3,0,1,0,0,2.6,6.474,6.474,0,0,0,0-12.948Z" transform="translate(-151.842 -356.1)" fill="#393185"/>
            </g>
          </g>
          <g id="Group_1606" data-name="Group 1606" transform="translate(38.829 31.147)">
            <g id="Group_1605" data-name="Group 1605" transform="translate(0)">
              <path id="Path_2491" data-name="Path 2491" d="M229.9,179.493a1.3,1.3,0,0,0,0,2.6,3.109,3.109,0,0,1,0,6.218,1.3,1.3,0,1,0,0,2.6,5.711,5.711,0,1,0,0-11.423Z" transform="translate(-228.6 -179.493)" fill="#393185"/>
            </g>
          </g>
          <g id="Group_1608" data-name="Group 1608" transform="translate(15.906 22.873)">
            <g id="Group_1607" data-name="Group 1607" transform="translate(0)">
              <path id="Path_2492" data-name="Path 2492" d="M97.782,131.807a1.3,1.3,0,1,0,0,2.6,5.346,5.346,0,0,1,0,10.691,1.3,1.3,0,1,0,0,2.6,7.948,7.948,0,1,0,0-15.9Z" transform="translate(-96.481 -131.807)" fill="#393185"/>
            </g>
          </g>
          <g id="Group_1610" data-name="Group 1610" transform="translate(73.977 22.814)">
            <g id="Group_1609" data-name="Group 1609" transform="translate(0)">
              <path id="Path_2493" data-name="Path 2493" d="M435.443,131.467a4.42,4.42,0,1,0,4.436,4.42A4.42,4.42,0,0,0,435.443,131.467Zm0,6.238a1.818,1.818,0,1,1,1.833-1.818A1.818,1.818,0,0,1,435.443,137.705Z" transform="translate(-431.038 -131.467)" fill="#393185"/>
            </g>
          </g>
          <g id="Group_1612" data-name="Group 1612" transform="translate(78.324 56.118)">
            <g id="Group_1611" data-name="Group 1611" transform="translate(0 0)">
              <path id="Path_2494" data-name="Path 2494" d="M460.5,323.418a4.42,4.42,0,1,0,4.436,4.42A4.42,4.42,0,0,0,460.5,323.418Zm0,6.238a1.818,1.818,0,1,1,1.833-1.818A1.818,1.818,0,0,1,460.5,329.656Z" transform="translate(-456.098 -323.418)" fill="#393185"/>
            </g>
          </g>
          <g id="Group_1614" data-name="Group 1614" transform="translate(73.165 38.135)">
            <g id="Group_1613" data-name="Group 1613" transform="translate(0 0)">
              <path id="Path_2495" data-name="Path 2495" d="M433.332,222.163a4.42,4.42,0,0,0-2.078.518l-2.537-2.524A1.3,1.3,0,1,0,426.881,222l2.53,2.517a4.381,4.381,0,0,0-.518,2.065,4.436,4.436,0,1,0,4.439-4.421Zm0,6.238a1.818,1.818,0,1,1,1.833-1.818,1.818,1.818,0,0,1-1.833,1.818Z" transform="translate(-426.498 -219.778)" fill="#393185"/>
            </g>
          </g>
          <g id="Group_1616" data-name="Group 1616" transform="translate(72.662 69.702)">
            <g id="Group_1615" data-name="Group 1615" transform="translate(0 0)">
              <path id="Path_2496" data-name="Path 2496" d="M427.867,401.706a4.42,4.42,0,1,0,4.436,4.42,4.42,4.42,0,0,0-4.436-4.42Zm0,6.238a1.818,1.818,0,1,1,1.833-1.818,1.818,1.818,0,0,1-1.833,1.818Z" transform="translate(-423.462 -401.706)" fill="#393185"/>
            </g>
          </g>
          <g id="Group_1618" data-name="Group 1618" transform="translate(0 0)">
            <g id="Group_1617" data-name="Group 1617" transform="translate(0)">
              <path id="Path_2497" data-name="Path 2497" d="M66.652,24.453a3.68,3.68,0,0,0,2.4-.988l5.027-5a4.425,4.425,0,1,0-2.045-1.637l-4.818,4.789a1.23,1.23,0,0,1-.565.233H55.912V13.236h3.021a4.42,4.42,0,1,0,0-2.6H55.912v-.2A10.491,10.491,0,0,0,35.9,6.09c-.26-.019-.518-.028-.777-.028a11.045,11.045,0,0,0-11.05,10.747A11.061,11.061,0,0,0,11.443,27.7a10.845,10.845,0,0,0,.7,3.849A14.959,14.959,0,0,0,12.178,57.3a10.968,10.968,0,0,0,2.017,11.223,1.3,1.3,0,0,0,1.95-1.724,8.365,8.365,0,0,1-2.1-5.546,8.264,8.264,0,0,1,.962-3.9,8.433,8.433,0,0,1,3.451-3.488,1.3,1.3,0,1,0-1.239-2.288A11.041,11.041,0,0,0,13.4,55a12.353,12.353,0,0,1,.811-21.622,12.761,12.761,0,0,1,5.654-1.352,1.3,1.3,0,1,0,0-2.6,15.036,15.036,0,0,0-5.362.986,8.272,8.272,0,0,1-.454-2.709A8.461,8.461,0,0,1,25.077,19.7a1.3,1.3,0,0,0,1.682-1.426,8.4,8.4,0,0,1,8.365-9.608,8.6,8.6,0,0,1,1.391.115,8.43,8.43,0,0,1,7.061,8.291,1.3,1.3,0,0,0,2.6,0A11.03,11.03,0,0,0,38.553,6.609,7.888,7.888,0,0,1,53.31,10.437v.148h-2.5a1.3,1.3,0,1,0,0,2.6h2.5V21.85H42.784a4.31,4.31,0,0,1-4.319-4.294,1.3,1.3,0,1,0-2.6,0,6.915,6.915,0,0,0,6.921,6.894H53.31V46.359H32.2a1.3,1.3,0,0,0,0,2.6H53.31V66.829H49.288a6.653,6.653,0,0,0-6.657,6.632,1.3,1.3,0,1,0,2.6,0,4.048,4.048,0,0,1,4.056-4.029h4.021v8.963c0,.2-.01.406-.026.607H50.807a1.3,1.3,0,1,0,0,2.6h1.809a7.9,7.9,0,0,1-14.04.658,11.021,11.021,0,0,0,4.237-2.552A1.3,1.3,0,1,0,41,77.838a8.416,8.416,0,0,1-4.473,2.253,8.587,8.587,0,0,1-1.412.119,8.439,8.439,0,0,1-8.451-8.4c0-.118.007-.241.013-.363A11.045,11.045,0,0,0,29.6,69.7a1.3,1.3,0,0,0,.165-1.833A1.315,1.315,0,0,0,27.93,67.7a8.661,8.661,0,0,1-6.144,1.935,1.3,1.3,0,1,0-.215,2.591,11.259,11.259,0,0,0,2.5-.074A11.046,11.046,0,0,0,35.124,82.81c.264,0,.529-.01.8-.03a10.491,10.491,0,0,0,19.992-4.385V75.519h6.9a1.228,1.228,0,0,1,.565.233l3.1,3.087a4.382,4.382,0,0,0-.666,2.321,4.437,4.437,0,1,0,2.629-4.036l-3.23-3.217a3.68,3.68,0,0,0-2.4-.991h-6.9V65.958H67.225a4.42,4.42,0,1,0,0-2.6H55.912V54.64H69.449a4.42,4.42,0,1,0,0-2.6H55.912V42.565h3.223a4.42,4.42,0,1,0,0-2.6H55.912V32.455H70.09a1.23,1.23,0,0,1,.565.233l2.673,2.66A1.3,1.3,0,1,0,75.164,33.5l-2.673-2.66a3.68,3.68,0,0,0-2.4-.99H55.912v-5.4Zm9.058-11.919a1.818,1.818,0,1,1-1.833,1.817,1.818,1.818,0,0,1,1.833-1.817ZM63.172,10.118a1.818,1.818,0,1,1-1.833,1.818,1.818,1.818,0,0,1,1.833-1.818ZM70.25,79.342a1.818,1.818,0,1,1-1.833,1.818A1.818,1.818,0,0,1,70.25,79.342Zm1.213-16.5a1.818,1.818,0,1,1-1.833,1.818A1.818,1.818,0,0,1,71.464,62.841Zm2.221-11.32a1.818,1.818,0,1,1-1.833,1.818,1.818,1.818,0,0,1,1.833-1.818ZM63.374,39.448a1.818,1.818,0,1,1-1.833,1.818,1.818,1.818,0,0,1,1.833-1.818Z" transform="translate(-4.812 0.006)" fill="#393185"/>
            </g>
          </g>
        </g>
      </g>
    </g>
  </g>
</svg>
