<svg xmlns="http://www.w3.org/2000/svg" width="100" height="100" viewBox="0 0 120 120">
  <g id="Group_1419" data-name="Group 1419" transform="translate(-646 -3475)">
    <g id="Computer_Communication" data-name="Computer &amp; Communication" transform="translate(-9921 647.068)">
      <rect id="Rectangle_5934" data-name="Rectangle 5934" width="120" height="120" transform="translate(10567 2827.932)" fill="none"/>
      <g id="website" transform="translate(10578.023 2840.769)">
        <g id="Group_1143" data-name="Group 1143" transform="translate(0)">
          <g id="Group_1142" data-name="Group 1142">
            <path id="Path_1099" data-name="Path 1099" d="M91.346,8.533H6.527A6.744,6.744,0,0,0,0,15.46V72.588a1.685,1.685,0,0,0,1.63,1.73H96.241a1.685,1.685,0,0,0,1.63-1.73V15.46a6.742,6.742,0,0,0-6.525-6.927Zm3.265,62.323H3.253V15.46A3.371,3.371,0,0,1,6.518,12H91.346a3.371,3.371,0,0,1,3.265,3.465Z" transform="translate(0 -8.533)" fill="#393185"/>
          </g>
        </g>
        <g id="Group_1145" data-name="Group 1145" transform="translate(0 57.823)">
          <g id="Group_1144" data-name="Group 1144">
            <path id="Path_1100" data-name="Path 1100" d="M96.241,315.733H1.63A1.685,1.685,0,0,0,0,317.463v8.654a6.744,6.744,0,0,0,6.527,6.928H91.346a6.744,6.744,0,0,0,6.527-6.928v-8.654a1.684,1.684,0,0,0-1.632-1.73Zm-1.63,10.386a3.371,3.371,0,0,1-3.265,3.465H6.527a3.174,3.174,0,0,1-2.314-1.012,3.577,3.577,0,0,1-.96-2.453V319.2H94.611v6.923Z" transform="translate(0 -315.733)" fill="#393185"/>
          </g>
        </g>
        <g id="Group_1147" data-name="Group 1147" transform="translate(42.122 64.959)">
          <g id="Group_1146" data-name="Group 1146" transform="translate(0 0)">
            <path id="Path_1101" data-name="Path 1101" d="M233.925,349.869H223.537a1.73,1.73,0,0,0,0,3.453h10.388a1.73,1.73,0,1,0,0-3.453Z" transform="translate(-221.925 -349.865)" fill="#393185"/>
          </g>
        </g>
        <g id="Group_1149" data-name="Group 1149" transform="translate(6.925 6.925)">
          <g id="Group_1148" data-name="Group 1148">
            <path id="Path_1102" data-name="Path 1102" d="M116.542,42.667H35.749a1.678,1.678,0,0,0-1.615,1.73V99.8a1.678,1.678,0,0,0,1.615,1.73h80.793a1.678,1.678,0,0,0,1.615-1.73V44.4A1.678,1.678,0,0,0,116.542,42.667Zm-1.615,55.4H37.366V46.13h77.559Z" transform="translate(-34.134 -42.667)" fill="#393185"/>
          </g>
        </g>
        <g id="Group_1151" data-name="Group 1151" transform="translate(21.236 84.023)">
          <g id="Group_1150" data-name="Group 1150" transform="translate(0)">
            <path id="Path_1103" data-name="Path 1103" d="M169.672,452.267H124.661a5.194,5.194,0,1,0,0,10.388h45.011a5.194,5.194,0,1,0,0-10.388Zm0,6.925H124.661a1.73,1.73,0,1,1,0-3.453h45.011a1.73,1.73,0,1,1,0,3.453Z" transform="translate(-119.466 -452.267)" fill="#393185"/>
          </g>
        </g>
        <g id="Group_1153" data-name="Group 1153" transform="translate(28.284 70.174)">
          <g id="Group_1152" data-name="Group 1152" transform="translate(0)">
            <path id="Path_1104" data-name="Path 1104" d="M193.357,397.85c-5.743,0-8.656-4.076-8.656-12.119a1.732,1.732,0,0,0-1.73-1.73H165.659a1.732,1.732,0,0,0-1.73,1.73c0,8.042-2.912,12.118-8.656,12.118a1.73,1.73,0,0,0,0,3.453h38.086a1.73,1.73,0,0,0,0-3.453Zm-29.651,0a16.587,16.587,0,0,0,3.639-10.388h13.944a16.566,16.566,0,0,0,3.639,10.388Z" transform="translate(-153.661 -384.001)" fill="#393185"/>
          </g>
        </g>
        <g id="Group_1155" data-name="Group 1155" transform="translate(56.132 33.556)">
          <g id="Group_1154" data-name="Group 1154" transform="translate(0)">
            <path id="Path_1105" data-name="Path 1105" d="M320.842,202.384l-4.18-4.18,2.325-2.325a1.73,1.73,0,0,0-.725-2.882L300.951,187.8a1.732,1.732,0,0,0-2.155,2.155l5.193,17.312a1.73,1.73,0,0,0,2.882.727l2.447-2.449,4.182,4.182a1.73,1.73,0,0,0,2.447,0l4.9-4.9A1.73,1.73,0,0,0,320.842,202.384Zm-6.119,3.674-3.806-3.808a2.263,2.263,0,0,0-3.2,0l-1.249,1.249-3.436-11.454,11.456,3.436-1.34,1.34a1.962,1.962,0,0,0,0,2.772l4.017,4.017Z" transform="translate(-298.724 -187.731)" fill="#393185"/>
          </g>
        </g>
        <g id="Group_1157" data-name="Group 1157" transform="translate(19.907 13.849)">
          <g id="Group_1156" data-name="Group 1156">
            <path id="Path_1106" data-name="Path 1106" d="M161.138,76.8H112.664a1.732,1.732,0,0,0-1.73,1.73v8.656a1.732,1.732,0,0,0,1.73,1.73h48.474a1.732,1.732,0,0,0,1.73-1.73V78.53a1.732,1.732,0,0,0-1.73-1.73Zm-1.73,8.656H114.4v-5.2H159.4Z" transform="translate(-110.934 -76.8)" fill="#393185"/>
          </g>
        </g>
        <g id="Group_1159" data-name="Group 1159" transform="translate(27.392 30.701)">
          <g id="Group_1158" data-name="Group 1158" transform="translate(0)">
            <path id="Path_1107" data-name="Path 1107" d="M160.647,170.667H146.8a1.732,1.732,0,0,0-1.73,1.73v6.925a1.732,1.732,0,0,0,1.73,1.73h13.849a1.732,1.732,0,0,0,1.73-1.73V172.4a1.732,1.732,0,0,0-1.73-1.73Zm-1.732,6.925H148.527V174.14h10.388Z" transform="translate(-145.068 -170.667)" fill="#393185"/>
          </g>
        </g>
        <g id="Group_1161" data-name="Group 1161" transform="translate(19.906 13.849)">
          <g id="Group_1160" data-name="Group 1160" transform="translate(0 0)">
            <path id="Path_1108" data-name="Path 1108" d="M161.138,76.8H112.664a1.732,1.732,0,0,0-1.73,1.73v32.9a1.732,1.732,0,0,0,1.73,1.73h41.214a1.732,1.732,0,0,0,1.659-2.234l-2.191-7.319,7.3,2.189a1.732,1.732,0,0,0,2.234-1.659V78.53a1.732,1.732,0,0,0-1.738-1.73ZM159.4,101.823l-8.148-2.437a1.732,1.732,0,0,0-2.155,2.157l2.451,8.158H114.4V80.253H159.4Z" transform="translate(-110.934 -76.8)" fill="#393185"/>
          </g>
        </g>
      </g>
    </g>
    <circle id="Ellipse_24" data-name="Ellipse 24" cx="34" cy="34" r="34" transform="translate(676 3501)" fill="#fdb913" opacity="0.66" style="mix-blend-mode: multiply;isolation: isolate"/>
  </g>
</svg>
