<svg xmlns="http://www.w3.org/2000/svg" width="100" height="100" viewBox="0 0 120 120">
  <g id="Group_1414" data-name="Group 1414" transform="translate(-1213 -3201)">
    <g id="Electronics_Commumication" data-name="Electronics &amp; Commumication" transform="translate(-4640 -773.021)">
      <g id="Group_1109" data-name="Group 1109" transform="translate(5853 3974.021)">
        <rect id="Rectangle_949" data-name="Rectangle 949" width="120" height="120" transform="translate(0 0)" fill="none"/>
        <g id="Electronics_Communication" data-name="Electronics &amp; Communication" transform="translate(11.419 11.409)">
          <path id="Path_124" data-name="Path 124" d="M78.68,50.021H94.82a3.914,3.914,0,1,0,0-2.884H78.68V40.062h10.4a1.442,1.442,0,0,0,1.442-1.442v-9.5H94.82a3.914,3.914,0,1,0,0-2.884H89.084a1.442,1.442,0,0,0-1.442,1.442v9.5H78.68V29.874a1.442,1.442,0,0,0-1.442-1.442H69.931V19.468h9.5a1.442,1.442,0,0,0,1.442-1.442V12.29a3.912,3.912,0,1,0-2.884,0v4.295h-9.5a1.442,1.442,0,0,0-1.442,1.442v10.4H59.972V12.292a3.912,3.912,0,1,0-2.884,0V28.43H50.021V12.29a3.914,3.914,0,1,0-2.884,0V28.43H40.062v-10.4a1.442,1.442,0,0,0-1.442-1.442h-9.5V12.29a3.914,3.914,0,1,0-2.884,0v5.736a1.442,1.442,0,0,0,1.442,1.442h9.5V28.43H29.874a1.442,1.442,0,0,0-1.442,1.442v7.306H19.468v-9.5a1.442,1.442,0,0,0-1.442-1.442H12.292a3.914,3.914,0,1,0,0,2.884h4.295v9.5a1.442,1.442,0,0,0,1.442,1.442h10.4v7.075H12.292a3.912,3.912,0,1,0,0,2.884H28.43V57.09H12.29a3.914,3.914,0,1,0,0,2.884H28.43v7.067h-10.4a1.442,1.442,0,0,0-1.442,1.442v9.5H12.29a3.914,3.914,0,1,0,0,2.884h5.736a1.442,1.442,0,0,0,1.442-1.442V69.931H28.43v7.306a1.442,1.442,0,0,0,1.442,1.442h7.306v8.96h-9.5a1.442,1.442,0,0,0-1.442,1.442v5.736a3.912,3.912,0,1,0,2.884,0V90.523h9.5a1.442,1.442,0,0,0,1.442-1.442V78.68h7.075V94.82a3.912,3.912,0,1,0,2.884,0V78.68H57.09V94.82a3.914,3.914,0,1,0,2.884,0V78.68h7.067v10.4a1.442,1.442,0,0,0,1.442,1.442h9.5V94.82a3.914,3.914,0,1,0,2.884,0V89.084a1.442,1.442,0,0,0-1.442-1.442H69.931V78.68h7.306a1.442,1.442,0,0,0,1.442-1.442V69.931h8.96v9.5a1.442,1.442,0,0,0,1.442,1.442h5.736a3.912,3.912,0,1,0,0-2.884H90.523v-9.5a1.442,1.442,0,0,0-1.442-1.442H78.68V59.972H94.82a3.912,3.912,0,1,0,0-2.884H78.68Zm19.77-2.472a1.03,1.03,0,1,1-1.03,1.03A1.03,1.03,0,0,1,98.45,47.549Zm0-20.9a1.03,1.03,0,1,1-1.03,1.03A1.03,1.03,0,0,1,98.45,26.652ZM79.43,7.632a1.03,1.03,0,1,1-1.03,1.03A1.03,1.03,0,0,1,79.43,7.632Zm-20.9,0a1.03,1.03,0,1,1-1.03,1.03A1.03,1.03,0,0,1,58.532,7.632Zm-9.953,0a1.03,1.03,0,1,1-1.03,1.03A1.03,1.03,0,0,1,48.579,7.632Zm-20.9,0a1.03,1.03,0,1,1-1.03,1.03,1.03,1.03,0,0,1,1.03-1.03ZM8.662,28.71a1.03,1.03,0,1,1,1.03-1.03,1.03,1.03,0,0,1-1.03,1.03Zm0,20.9a1.03,1.03,0,1,1,1.03-1.03A1.03,1.03,0,0,1,8.662,49.607Zm0,9.953a1.027,1.027,0,1,1,.729-.3,1.03,1.03,0,0,1-.729.3Zm0,20.9a1.03,1.03,0,1,1,1.03-1.03A1.03,1.03,0,0,1,8.662,80.458Zm19.02,19.02a1.03,1.03,0,1,1,.728-.3,1.03,1.03,0,0,1-.728.3Zm20.9,0a1.03,1.03,0,1,1,1.03-1.03,1.03,1.03,0,0,1-1.03,1.03Zm9.953,0a1.03,1.03,0,1,1,1.03-1.03,1.03,1.03,0,0,1-1.03,1.03Zm20.9,0a1.03,1.03,0,1,1,1.03-1.03,1.03,1.03,0,0,1-1.03,1.03ZM98.45,78.4a1.03,1.03,0,1,1-1.03,1.03A1.03,1.03,0,0,1,98.45,78.4Zm0-20.9a1.03,1.03,0,1,1-1.03,1.03A1.03,1.03,0,0,1,98.45,57.5ZM75.8,75.8H31.314V31.314H75.8Z" transform="translate(-4.738 -4.738)" fill="#393185"/>
          <path id="Path_125" data-name="Path 125" d="M75.783,42.5H43.912A1.412,1.412,0,0,0,42.5,43.912V75.783A1.412,1.412,0,0,0,43.912,77.2H75.783A1.412,1.412,0,0,0,77.2,75.783V43.912A1.412,1.412,0,0,0,75.783,42.5ZM74.371,74.371H45.325V45.325H74.371Z" transform="translate(-11.03 -11.03)" fill="#393185"/>
          <path id="Path_126" data-name="Path 126" d="M77.412,64a1.412,1.412,0,0,0,1.412-1.412V54.62a1.412,1.412,0,1,0-2.825,0v7.968A1.412,1.412,0,0,0,77.412,64Z" transform="translate(-17.26 -13.176)" fill="#393185"/>
        </g>
      </g>
    </g>
    <circle id="Ellipse_19" data-name="Ellipse 19" cx="34" cy="34" r="34" transform="translate(1244 3239)" fill="#fdb913" opacity="0.66" style="mix-blend-mode: multiply;isolation: isolate"/>
  </g>
</svg>
