<svg xmlns="http://www.w3.org/2000/svg" width="100" height="100" viewBox="0 0 120 120">
  <g id="Group_1418" data-name="Group 1418" transform="translate(-935 -3463)">
    <g id="Electrical" transform="translate(-4918 -190.701)">
      <g id="Group_1108" data-name="Group 1108" transform="translate(5853 3653.701)">
        <rect id="Rectangle_948" data-name="Rectangle 948" width="120" height="120" transform="translate(0 0)" fill="none"/>
        <g id="OUTLINE" transform="translate(12.339 12.754)">
          <path id="Path_122" data-name="Path 122" d="M107.744,65.035v3.173h-6.329V44.2a4.714,4.714,0,0,0-1.389-3.356l-4.473-4.473A4.714,4.714,0,0,0,92.2,34.982H75.866L74.5,26.813a1.582,1.582,0,0,0-1.56-1.322H68.2V19.163h3.163V16h-9.49v3.163h3.163V25.49H52.38V19.163h3.163V16h-9.49v3.163h3.163V25.49H44.472a1.582,1.582,0,0,0-1.561,1.322L41.549,34.98H25.218a4.714,4.714,0,0,0-3.356,1.389l-4.473,4.483A4.714,4.714,0,0,0,16,44.2v57.487a4.714,4.714,0,0,0,1.389,3.356l4.473,4.473a4.714,4.714,0,0,0,3.356,1.389H92.2a4.714,4.714,0,0,0,3.356-1.389l4.473-4.473a4.714,4.714,0,0,0,1.389-3.356v-24h6.327v3.163h3.163V65.035ZM22.327,105.507l-2.7-2.7a1.572,1.572,0,0,1-.462-1.119V44.2a1.572,1.572,0,0,1,.462-1.119l2.7-2.7ZM45.811,28.655H71.6l1.054,6.327h-27.9ZM25.49,53.962H36.835a4.722,4.722,0,0,0-.272,1.582V60.29H25.49Zm0,9.49H36.562v3.163H25.49Zm0,6.327H36.562v6.329H25.49Zm0,9.49H36.562v3.163H25.49Zm0,6.327H36.562v4.749a4.722,4.722,0,0,0,.272,1.582H25.49Zm66.435,22.149H25.49v-6.329H91.925Zm0-9.49H25.49V95.089H91.925ZM39.717,90.345v-34.8A1.584,1.584,0,0,1,41.3,53.964H76.107a1.584,1.584,0,0,1,1.582,1.582v34.8a1.584,1.584,0,0,1-1.582,1.582h-34.8a1.584,1.584,0,0,1-1.582-1.582Zm52.208,1.582H80.58a4.722,4.722,0,0,0,.272-1.582V85.6H91.923Zm0-9.49H80.852V79.272H91.923Zm0-6.327H80.852V69.78H91.923Zm0-9.49H80.852V63.453H91.923Zm0-6.327H80.852V55.545a4.721,4.721,0,0,0-.272-1.582H91.925Zm0-9.49H25.49V47.635H91.925Zm0-6.327H25.49V38.145H91.925Zm6.327,57.217a1.572,1.572,0,0,1-.464,1.119l-2.7,2.7V40.4l2.7,2.7a1.572,1.572,0,0,1,.464,1.119Zm9.49-27.164h-6.327V71.362h6.327Z" transform="translate(-16 -16)" fill="#393185"/>
          <path id="Path_123" data-name="Path 123" d="M161.6,243.182h7.285L164.9,253.809a1.6,1.6,0,0,0,2.47,1.828l20.78-15.985a1.6,1.6,0,0,0-.973-2.866H179.89l3.985-10.628a1.6,1.6,0,0,0-2.47-1.828l-20.78,15.985a1.6,1.6,0,0,0,.973,2.866Zm17.326-12.9-2.831,7.546a1.6,1.6,0,0,0,1.5,2.159h4.89l-12.617,9.707,2.831-7.546a1.6,1.6,0,0,0-1.5-2.159h-4.89Z" transform="translate(-131.657 -183.09)" fill="#393185"/>
        </g>
      </g>
    </g>
    <circle id="Ellipse_23" data-name="Ellipse 23" cx="34" cy="34" r="34" transform="translate(960 3501)" fill="#fdb913" opacity="0.66" style="mix-blend-mode: multiply;isolation: isolate"/>
  </g>
</svg>
