<svg xmlns="http://www.w3.org/2000/svg" width="100" height="100" viewBox="0 0 120 120">
  <g id="Group_1417" data-name="Group 1417" transform="translate(-1213 -3463)">
    <g id="Information_Technology." data-name="Information Technology." transform="translate(-2299 -498)">
      <g id="Group_1113" data-name="Group 1113" transform="translate(3512 3961)">
        <rect id="Rectangle_954" data-name="Rectangle 954" width="120" height="120" fill="none"/>
        <g id="Information_Technology.-2" data-name="Information Technology." transform="translate(10.652 10.653)">
          <path id="Path_147" data-name="Path 147" d="M97.11,27.062H91.558a26.669,26.669,0,0,0-3.192-7.728l3.914-3.914a1.591,1.591,0,0,0,0-2.25L85.527,6.414a1.638,1.638,0,0,0-2.25,0l-3.912,3.921a26.748,26.748,0,0,0-7.732-3.2V1.591A1.591,1.591,0,0,0,70.04,0H60.485a1.591,1.591,0,0,0-1.6,1.591V7.137a26.678,26.678,0,0,0-7.718,3.2L47.256,6.414a1.591,1.591,0,0,0-2.25,0l-6.755,6.755a1.591,1.591,0,0,0,0,2.25l3.914,3.914a26.668,26.668,0,0,0-3.192,7.728H33.429a1.591,1.591,0,0,0-1.591,1.591v3.184H7.96a4.781,4.781,0,0,0-4.776,4.776V82.776H1.591A1.591,1.591,0,0,0,0,84.367v6.367a7.968,7.968,0,0,0,7.96,7.96H78a7.968,7.968,0,0,0,7.96-7.96V84.367a1.591,1.591,0,0,0-1.591-1.591H82.777V59.945l.488.505a1.591,1.591,0,0,0,2.25,0L92.27,53.7a1.591,1.591,0,0,0,0-2.25l-3.914-3.914A26.668,26.668,0,0,0,91.548,39.8H97.11A1.591,1.591,0,0,0,98.7,38.212V28.657a1.591,1.591,0,0,0-1.591-1.591ZM82.775,90.735A4.781,4.781,0,0,1,78,95.511H7.96a4.781,4.781,0,0,1-4.776-4.776V85.96h19.11v1.6a4.781,4.781,0,0,0,4.776,4.776H58.89a4.781,4.781,0,0,0,4.783-4.776V85.964h19.11ZM25.469,85.96h35.02v1.6A1.593,1.593,0,0,1,58.9,89.146H27.062a1.593,1.593,0,0,1-1.591-1.591Zm54.122-3.184H6.367V36.613a1.593,1.593,0,0,1,1.591-1.591h23.88v3.184A1.591,1.591,0,0,0,33.429,39.8h5.544a26.668,26.668,0,0,0,3.192,7.728l-3.914,3.914a1.591,1.591,0,0,0,0,2.25L45,60.45a1.638,1.638,0,0,0,2.25,0l3.914-3.914a26.67,26.67,0,0,0,7.722,3.184v5.544a1.591,1.591,0,0,0,1.591,1.591h9.555a1.591,1.591,0,0,0,1.591-1.591V59.721a26.678,26.678,0,0,0,7.738-3.19l.234.23Zm15.92-46.162h-5.24a1.591,1.591,0,0,0-1.56,1.295,23.632,23.632,0,0,1-3.691,8.937,1.591,1.591,0,0,0,.195,2.022l3.7,3.7-4.5,4.5-3.7-3.7a1.6,1.6,0,0,0-2.022-.195,23.626,23.626,0,0,1-8.939,3.693,1.591,1.591,0,0,0-1.295,1.56v5.24H62.082V58.436a1.591,1.591,0,0,0-1.295-1.56,23.632,23.632,0,0,1-8.939-3.693,1.6,1.6,0,0,0-2.022.2l-3.7,3.7-4.5-4.5,3.7-3.705a1.589,1.589,0,0,0,.195-2.022,23.609,23.609,0,0,1-3.691-8.939,1.593,1.593,0,0,0-1.56-1.295H35.02V30.245h5.24a1.591,1.591,0,0,0,1.56-1.295,23.632,23.632,0,0,1,3.691-8.939,1.591,1.591,0,0,0-.195-2.022l-3.7-3.7,4.518-4.495,3.7,3.705a1.593,1.593,0,0,0,2.022.195A23.626,23.626,0,0,1,60.795,10a1.591,1.591,0,0,0,1.295-1.56V3.184h6.355V8.422a1.591,1.591,0,0,0,1.295,1.56,23.632,23.632,0,0,1,8.943,3.7,1.589,1.589,0,0,0,2.022-.195l3.7-3.705L88.9,14.294,85.2,18A1.589,1.589,0,0,0,85,20.021a23.609,23.609,0,0,1,3.691,8.939,1.593,1.593,0,0,0,1.56,1.295h5.257Zm0,0" transform="translate(0 0)" fill="#393185"/>
          <path id="Path_148" data-name="Path 148" d="M243.855,64a19.855,19.855,0,1,0,19.855,19.855A19.855,19.855,0,0,0,243.855,64Zm-1.519,36.577v-7.9a1.527,1.527,0,0,0-1-1.433,8.01,8.01,0,0,1-5.111-7.555,8.172,8.172,0,0,1,3.055-6.416v6.416a1.538,1.538,0,0,0,.425,1.059l3.055,3.181a1.573,1.573,0,0,0,2.2,0l3.055-3.181a1.532,1.532,0,0,0,.427-1.059V77.284A8.172,8.172,0,0,1,251.5,83.7a8.01,8.01,0,0,1-5.111,7.555,1.527,1.527,0,0,0-1,1.433v7.89c-.5.045-1.01.077-1.527.077S242.831,100.624,242.335,100.577Zm6.109-.573v-6.32a11.226,11.226,0,0,0-1-20.427,1.529,1.529,0,0,0-2.058,1.433v8.393l-1.527,1.588-1.525-1.588V74.691a1.529,1.529,0,0,0-2.058-1.433,11.226,11.226,0,0,0-1,20.427V100a16.8,16.8,0,1,1,9.168,0Zm0,0" transform="translate(-177.235 -51.781)" fill="#393185"/>
          <path id="Path_149" data-name="Path 149" d="M109.089,228.656H51.052v-33.6h15.28V192h-16.8A1.527,1.527,0,0,0,48,193.527v36.656a1.527,1.527,0,0,0,1.527,1.527h61.085a1.527,1.527,0,0,0,1.527-1.527v-7.637h-3.053Zm0,0" transform="translate(-38.833 -152.677)" fill="#393185"/>
        </g>
      </g>
    </g>
    <circle id="Ellipse_22" data-name="Ellipse 22" cx="34" cy="34" r="34" transform="translate(1244 3501)" fill="#fdb913" opacity="0.66" style="mix-blend-mode: multiply;isolation: isolate"/>
  </g>
</svg>
